<svg xmlns="http://www.w3.org/2000/svg" fill="none" viewBox="0 0 143 13">
  <g clip-path="url(#yWKTj_YJVPYSa)" fill="#D9EFDE" fill-opacity=".8">
    <path d="M27.599 12.198v-.338c-.055 0-3.598.193-5.342.193-2.289 0-5.559-.048-5.559-.048l-15.042-.097v-.29l15.097-.048s3.27.048 5.559.048h5.287c0-.144-.055-.386-.055-.579-.054 0-3.543.242-5.232.242-2.29 0-5.56-.145-5.56-.145h-3.869L7.76 10.99H1.71c0-.048.055-.242.055-.29.218.048.381.097 1.144.097.981 0 1.417-.194 1.417-.194s.709.194 1.635.194c.436 0 1.417-.387 2.017-.242.98.242 1.362-.145 1.362-.145s.218.242.654.338c.327.049.763-.145.763-.145s.545.339 2.126.339c1.908 0 2.453-.918 2.453-.918h.054s-.054.242.055.435c.218.386.817.434.817.434-.054-1.062.436-1.786.436-1.786h.055l-.11.29c-.217.772.164 1.448.164 1.448l.164-.097s-.164-.482 0-1.159c.163-.676.436-1.014.436-1.014h.109s-.164.532-.164.918c0 .338.218 1.159.927 1.4.545.193.98-.241.98-.241s1.2.29 2.18.29c2.344 0 2.89-.338 2.89-.338s.163.241 1.362.241c.709 0 1.254-.048 1.58-.097.11 0 .164 0 .219-.048 0-.193-.055-.338-.11-.531-.653-3.235-2.779-6.036-5.722-7.823l-.164.435c2.889 1.69 5.015 4.346 5.614 7.485-.327.096-.817.24-1.417.24-.926 0-1.144-.24-1.144-.24s-.328.193-.927.193c-.545 0-.927-.338-.927-.338s-.545.482-1.526.482c-1.144 0-1.744-.627-1.962-.917a3.143 3.143 0 01-.327-.531h-.054c0 .096.054.241.109.386.163.386.272.483.327.58.054.048.109.193-.055.241-.109.048-.163-.048-.218-.096-.054-.097-.272-.339-.381-.725-.164-.434-.164-.724-.218-.966h-.11c-.054.194-.054.532-.054.918.055.434.164.724.218.82 0 0 .055.05.055.097 0 .145-.11.194-.218.194-.11 0-.218-.097-.273-.194-.49-.724.11-2.173.273-2.607a4.533 4.533 0 00.327-1.256s.327-.483.49-.82c.218-.435.382-.821.545-.966.218-.194.6-.676.981-1.304.055-.097.382-.773.436-.918.055-.096.11-.241.164-.338.163-.58.327-1.255.327-1.352 0-.145-.273-.241-.273-.241s-.272-.097-.436-.097c-.109 0-.218.097-.327.145-.163.048-.218 0-.218 0s-.218-.096-.327-.048c-.109 0-.218.145-.327.145-.163.048-.218.048-.218.048s-.163-.048-.272-.048a2.5 2.5 0 00-.436.241A15.623 15.623 0 0013.973.27C6.506.27.402 5.583.293 12.198v.338h27.306v-.338zM10.212 9.784c-.054 0 0-.049-.054-.049.381-1.062 1.254-3.235 2.67-4.877.164.049.273.145.437.193-1.036 1.014-2.399 2.994-3.053 4.733zm.818.338c.272-.966.981-2.994 2.507-4.926.164.097.272.145.436.242-1.036 1.207-2.289 3.138-2.834 4.732-.055 0-.055-.048-.11-.048zm1.09.241h-.054c.217-.773.817-2.8 2.234-4.78.164.096.273.144.382.241-.981 1.304-2.072 3.09-2.562 4.54zm1.036 0H13.1c.218-.724.708-2.51 1.908-4.298.163.097.327.194.381.29-.872 1.16-1.798 2.704-2.235 4.008zm3.597-3.235c-.273 0-.654-.097-.763-.29.054.338.49.628.872.628-.11 0-.164.048-.273.048-.49 0-.926-.386-.926-.82V6.5c.381.29 1.199.676 1.69.097v.048c-.055.241-.328.483-.6.483zm1.526-1.883c0 .144-.11.193-.218.241-.055.048-.218.097-.218.145h-.055s-.054-.048-.109-.048v-.194s-.054-.096 0-.193c0-.145.164-.241.164-.241h.054l-.109.193c0 .048-.054.193 0 .29v.096l.055.049.054-.049c.11-.048.11-.096.11-.096s-.11-.097-.055-.193c.054-.097.218-.097.218-.097.054-.145 0-.241 0-.241l.109.048c-.055-.048 0 .096 0 .29zm.708-4.105c.164-.048.218-.145.382-.193.163-.048.272 0 .381 0 .11 0 .273-.145.382-.145.109 0 .163.048.272.048.055.097.382-.096.436-.096.055 0 .273 0 .218.193-.054.145-.163.58-.381 1.159a4.53 4.53 0 01-.273.531c-.109.193-.218.435-.381.628-.6.869-1.2.676-2.344 1.159-.926.386-1.308.627-1.417.772-.109-.096-.163-.096-.272-.145.163-.144.545-.386 1.308-.724.817-.386 2.18-.87 2.452-1.304v-.096c-.327.193-.6.29-.708.386-1.308.58-1.799.724-2.398 1.014-.273.145-.709.338-.981.531-.055-.048-.164-.096-.218-.145.272-.193.654-.386 1.035-.58.6-.24 1.09-.482 2.507-1.206.11-.049.818-.435 1.363-.821 0-.048 0-.097.054-.145-.49.241-2.07 1.014-2.398 1.159-1.308.58-1.253.531-1.853.82-.381.194-.763.387-1.035.58-.055-.048-.164-.096-.218-.145.327-.193.6-.386 1.035-.58.6-.289.654-.337 2.017-.917.654-.29 1.853-1.014 2.507-1.352V1.43c-.654.338-2.562 1.207-2.834 1.352-1.308.531-1.472.58-2.071.869-.327.145-.654.338-.927.483l-.163-.145c.218-.145.6-.386 1.09-.628.6-.29.708-.338 2.016-.917.164-.048.818-.386 1.417-.725.164-.096.382-.193.545-.29.164-.096.273-.192.382-.24l-.055-.049c-.272.097-.654.29-.763.338-.708.338-1.58.724-1.853.821-1.308.58-1.471.628-2.07.917-.328.145-.71.338-.928.532l-.163-.145a6.438 6.438 0 011.09-.628c.6-.29.709-.338 2.017-.917.218-.097.436-.194.6-.29.054 0 .653-.29 1.198-.628zM14.518.85c1.254 0 2.507.145 3.652.483-.218.145-.545.29-.981.483-1.526.676-1.69.724-2.344 1.014a5.847 5.847 0 00-1.036.58s-.272-.338-.435-.435c-.164-.097-.546-.193-.655-.241-.217-.097-.272-.194-.599-.29-.272-.097-.49-.048-.654-.048a1.857 1.857 0 00-.6-.097c-.163 0-.381.097-.545.097-.218 0-.381-.049-.545-.049-.163.049-.381.193-.6.193-.163.049-.38 0-.49 0-.109.049-.381.242-.545.29-.109.048-.436.048-.381.29 0 .193.49.241.49.241s2.126.242 4.197 1.207c-.272.339-.6.677-.817 1.063a2.25 2.25 0 00-.491-.097c-.218 0-.436.097-.6.049-.327 0-.327-.049-.708 0-.273.048-.273.096-.49.144-.164.049-.328 0-.6.049-.11.048-.327.241-.49.29-.11.048-.328.048-.491.144-.11.097-.11.193-.382.29-.163.097-.272.048-.436.193-.109.193-.109.338-.381.531-.327.242-.327.435-.273.483.11.193.6 0 .6 0s1.744-.53 3.815-.628A27.94 27.94 0 009.449 9.59c-.054.145-.109.29-.163.387H9.23c-.109-.097-.109-.242-.054-.58.054-.338.381-1.014.49-1.159h-.109c-.109.145-.436.676-.49.773-.11.193-.164.241-.382.676-.054.097-.163.29-.327.29-.109 0-.218-.049-.218-.145 0-.048.055-.145.11-.145.272-.386.49-.773.544-.966h-.109s-.763 1.546-2.398 1.546c-.545 0-1.144-.242-1.144-.242s-.763.29-1.799.29c-.817 0-1.308-.145-1.526-.193C2.964 4.907 8.032.85 14.52.85zm37.824 11.396l-.109-.048c-.654-.29-.872-1.11-1.199-1.835L47.71 2.54h-3.162v.242l.164.048s.163.048.218.097c.163.096.327.29.109.772 0 .242-.109.435-.109.435l-2.616 6.229c-.273.676-.49 1.545-1.145 1.835l-.218.097v.241h3.543v-.241l-.273-.097c-.327-.097-.381-.386-.054-1.207l.381-1.11h3.761c.11.24.218.579.382 1.062.163.482.436 1.11.054 1.303l-.218.097v.241h3.815v-.338zm-4.578-4.008h-2.507l1.254-3.09 1.253 3.09zM75.343 2.54v.242l.272.096c.436.145.382 1.063.382 1.642v6.036c0 .483 0 1.497-.382 1.642l-.272.097v.241h3.596v-.241l-.272-.097c-.436-.145-.382-1.159-.382-1.642V4.52c0-.82.11-1.545.382-1.642l.272-.096V2.54h-3.596zm-13.518 0v.242l.273.096c.436.145.381 1.063.381 1.642v6.036c0 .483 0 1.497-.381 1.642l-.273.097v.241h3.597v-.241l-.272-.097c-.436-.145-.382-1.159-.382-1.642V4.52c0-.82.11-1.545.382-1.642l.272-.096V2.54h-3.597zm-20.219-.869c-.818-.724-2.071-1.11-3.434-1.11H33.54v.241l.218.048c.6.242.545 1.546.545 2.511v6.567c0 .725 0 2.029-.545 2.222l-.218.096v.242h4.25v-.242l-.163-.096c-.763-.435-.763-1.4-.763-2.415V7.611l.436.145s.709.24 1.363.24c1.962 0 4.088-1.206 4.088-3.814 0-.966-.382-1.835-1.145-2.51zM37.464 7.08l-.382.049h-.218V2.637c.273-.048.6-.048 1.036-.048.872 0 1.58.193 1.962.58.381.337.545.772.545 1.4 0 1.496-1.526 2.414-2.943 2.51zM99.542.56h-7.358v.29l.327.097c.49.193.49 1.304.49 1.931v7.244c0 .58 0 1.786-.49 1.98l-.327.096v.29h4.088v-.29l-.327-.097c-.49-.193-.49-1.352-.49-1.98V7.756h2.398s1.035-.096 1.199.29l.054.145.273.048.163-3.187h-.381l-.055.194c-.109.24-1.035.338-1.308.29H95.4V2.588h2.943c.709 0 1.09.145 1.2.483l.053.193h.327l.763-2.85c.109.097-.872.146-1.144.146zM60.626 9.832l-.054.048c-.11.097-.218.145-.218.145-.654.386-1.745.82-2.834.82-.872 0-1.58-.24-2.18-.723-.709-.628-1.09-1.642-1.09-2.801 0-1.835 1.199-3.09 2.943-3.09.817 0 1.635.24 2.452.724l.218.145.436.241V2.734l-.327-.049c-1.09-.241-1.962-.386-2.725-.386-1.526 0-2.834.483-3.815 1.352-1.035.917-1.635 2.318-1.635 3.863 0 1.594.545 2.897 1.58 3.815 1.036.917 2.562 1.4 4.306 1.4.872 0 1.69-.145 2.344-.483h.054l.11-.048.054-.097.763-2.317h-.382v.048zm27.851 0l-.327.193c-.654.386-1.744.82-2.834.82-.872 0-1.58-.24-2.18-.723-.709-.628-1.09-1.642-1.09-2.801 0-1.835 1.199-3.09 2.943-3.09.817 0 1.635.24 2.453.724l.654.386V2.734l-.273-.049c-1.09-.241-1.962-.386-2.725-.386-1.526 0-2.834.483-3.815 1.352-1.036.917-1.636 2.318-1.636 3.863 0 1.594.546 2.897 1.581 3.815 1.036.917 2.562 1.4 4.306 1.4.872 0 1.69-.145 2.344-.483l.163-.048.818-2.414h-.382v.048zM73.435 2.54H66.84v.242l.273.096c.436.145.381 1.063.381 1.642v6.036c0 .483 0 1.497-.381 1.642l-.273.096v.242h3.597v-.242l-.272-.096c-.436-.145-.382-1.159-.382-1.642v-1.98h1.963s.871-.048.98.242l.055.145.218.048.163-2.656h-.273l-.054.145c-.054.193-.871.29-1.09.241H69.73V4.28h2.67c.6 0 .927.145 1.036.386l.054.145h.273l.654-2.366c.109 0-.763.096-.981.096zm46.217 0v.242l.218.096c.491.29.545.725.545 1.546V9.01c-1.526-1.932-4.904-6.519-4.904-6.519h-2.617v.242l.218.096c.491.29.545.773.545 1.594v5.987c0 .821 0 1.449-.545 1.739l-.163.096v.242h3.325v-.242l-.218-.096c-.491-.097-.491-.918-.491-1.739V6.065l3.27 4.153c.599.773 1.58 1.883 2.616 2.173.817.242.981.193.981.193V4.472c0-.821 0-1.304.545-1.594l.218-.096V2.54h-3.543zm13.408 1.449c-1.09-.966-2.725-1.497-4.741-1.497h-4.088v.242l.218.048.109.048c.49.145.381 1.16.381 1.69v6.036c0 .725 0 1.352-.599 1.69l-.164.097v.193h4.033c3.706 0 6.322-2.076 6.322-5.07 0-1.4-.49-2.608-1.471-3.477zm-1.908 6.036c-.763.628-1.798 1.014-3.106 1.014-.273 0-.436-.048-.763-.096v-6.76c.436-.097.654-.146 1.036-.146 1.253 0 2.179.29 2.833.87.654.579.981 1.545.981 2.704 0 .965-.381 1.835-.981 2.414zm-20.275.676V4.424c0-.725 0-1.4.545-1.546l.218-.048-.163-.29h-3.707v.242l.218.048c.545.193.491.966.491 1.497v4.78c0 .483 0 .725-.273 1.063-.436.531-1.253.87-2.125.87-.708 0-1.199-.146-1.58-.484-.491-.386-.709-1.11-.709-2.028v-4.25c0-.579 0-1.351.491-1.496l.218-.048V2.54h-3.816v.242l.218.048c.491.145.546 1.062.491 1.787V8.72c0 1.014 0 2.028.927 2.946.763.724 1.907 1.11 3.215 1.11.926 0 2.071-.434 2.888-1.014v.773h3.107v-.241l-.218-.049c-.436-.193-.49-.82-.436-1.545zm31.83-1.207c0 .773-.382 1.545-1.09 2.125-.818.724-1.962 1.11-3.216 1.11a8.763 8.763 0 01-2.78-.434h-.054l-.109-.049v-.145l-.436-1.786-.055-.29-.054-.241h.272l.382.386c.817.676 1.962.966 2.998.966.708 0 1.744-.435 1.744-1.16 0-.82-.872-1.206-2.017-1.69-1.362-.579-2.998-1.303-2.998-3.138 0-2.076 2.181-2.8 4.034-2.8.817 0 1.58.096 2.289.337h.054l.164.049v2.173l-.382-.242-.381-.193c-.327-.193-1.145-.483-1.853-.483-.273 0-.872.048-1.254.386a.788.788 0 00-.272.628c0 .724.981 1.159 2.016 1.594 1.308.58 2.998 1.303 2.998 2.897z"/>
  </g>
  <defs>
    <clipPath id="yWKTj_YJVPYSa">
      <path fill="#fff" d="M0 0h143v13H0z"/>
    </clipPath>
  </defs>
</svg>
