<svg xmlns="http://www.w3.org/2000/svg" fill="none" viewBox="0 0 80 25">
  <g clip-path="url(#k_jq85L0a_3La)" fill="#D9EFDE" fill-opacity=".8">
    <path d="M48.722 13.642s-.16-.622-.16-1.084V5.344h2.734V19.24l-8.755-7.66c-.468-.42-.745-.89-.745-.89s.139.517.139.966l-.003 7.27h-2.736V5.085l8.674 7.507c.466.416.852 1.05.852 1.05zM73.48 5.345c4.334 0 5.444 1.806 5.444 4.4 0 1.882-1.311 3.725-3.955 3.943l-.29.015s.256.047.523.32L80 18.925h-3.707l-6.698-7.186h3.335c2.987 0 3.074-1.663 3.094-2.083.056-1.08-.27-1.942-2.548-1.942h-3.814v11.211h-2.841V5.345h6.66zM52.526 12.33c0-5.69 4.507-7.185 8.295-7.185 1.517 0 2.86.143 4.274.46l.004 2.885c-.813-.264-2.445-.844-4.277-.844-3.592 0-5.336 1.474-5.336 4.683 0 2.628 1.88 4.302 5.336 4.302 1.832 0 3.666-.46 4.554-.806l-.005 2.799a21.58 21.58 0 01-4.55.509c-4.046 0-8.295-2.078-8.295-6.804zM21.755 5.694l2.667 2.654a6.011 6.011 0 00-.256.129 5.102 5.102 0 00-.559.36c-.44.32-1.012.829-1.745 1.665L16.65 16.33c-.893.998-1.8 1.788-2.645 2.206l-2.668-2.655c.073-.036.157-.076.254-.13.154-.084.338-.2.559-.358.438-.322 1.012-.829 1.746-1.666l5.21-5.819c.894-.996 1.804-1.796 2.649-2.214z"/>
    <path d="M11.432 19.783c1.178 0 2.262-.247 2.997-.65a8.747 8.747 0 001.228-.843c.411-.339.993-.866 1.486-1.42l5.217-5.812c1.316-1.464 2.107-1.917 2.587-2.095l2.676 2.679c-.559.631-7.219 8.127-7.219 8.127a24.216 24.216 0 01-1.258 1.333c-.312.304-.846.758-1.122.971-1.567 1.213-3.66 2.197-6.477 2.197C5.163 24.27 0 18.779 0 12.456 0 4.612 5.8.06 11.082.06 12.7.01 14 .298 15.027.666c.95.341 1.666.754 2.186 1.034-.615.417-1.21.984-2.19 2.091l-1.071 1.215a7.091 7.091 0 00-2.742-.457c-3.39.105-7.096 3.008-6.962 7.77.124 4.454 3.598 7.464 7.184 7.464z"/>
    <path d="M21.296 5.136a8.947 8.947 0 00-1.23.845c-.41.338-.992.866-1.486 1.418l-5.216 5.813c-1.316 1.464-2.107 1.915-2.587 2.093L8.101 12.63c.56-.632 7.22-8.127 7.22-8.127a25.27 25.27 0 011.257-1.334c.312-.305.847-.757 1.125-.972C19.267.984 21.362 0 24.18 0c6.384 0 11.544 5.492 11.544 11.813 0 7.846-5.798 12.395-11.082 12.395-1.618.052-2.918-.236-3.944-.607-.951-.34-1.67-.755-2.19-1.035.65-.463 1.206-.971 2.194-2.087l1.07-1.215c.246.099 1.34.502 2.743.458 3.388-.107 7.096-3.013 6.963-7.774-.126-4.45-3.602-7.462-7.186-7.462-1.18 0-2.26.248-2.996.65z"/>
  </g>
  <defs>
    <clipPath id="k_jq85L0a_3La">
      <path fill="#fff" d="M0 0h80v24.27H0z"/>
    </clipPath>
  </defs>
</svg>
